<svg viewBox="0 0 5667 334" xmlns="http://www.w3.org/2000/svg" xml:space="preserve" style="fill-rule:evenodd;clip-rule:evenodd;stroke-linejoin:round;stroke-miterlimit:2"><path d="M5209.38 166.667a4.173 4.173 0 0 0-4.167-4.167 4.172 4.172 0 0 0-4.166 4.167v15.982l-11.292-11.301a4.195 4.195 0 0 0-5.917 0 4.17 4.17 0 0 0 0 5.892l11.334 11.302h-16a4.172 4.172 0 0 0-4.167 4.166 4.173 4.173 0 0 0 4.167 4.167h16l-11.334 11.301a4.171 4.171 0 0 0 0 5.893 4.197 4.197 0 0 0 5.917 0l11.292-11.301v15.982a4.173 4.173 0 0 0 4.166 4.167 4.173 4.173 0 0 0 4.167-4.167v-15.982l11.292 11.301a4.195 4.195 0 0 0 5.916 0 4.171 4.171 0 0 0 0-5.893l-11.333-11.301h16a4.173 4.173 0 0 0 4.167-4.167 4.172 4.172 0 0 0-4.167-4.166h-16l11.333-11.302a4.17 4.17 0 0 0 0-5.892 4.195 4.195 0 0 0-5.916 0l-11.292 11.301v-15.982Z" style="fill:url(#a)"/><path d="M5142.71 266.667a4.172 4.172 0 0 0-4.166-4.167 4.173 4.173 0 0 0-4.167 4.167v15.982l-11.292-11.301a4.194 4.194 0 0 0-5.916 0 4.17 4.17 0 0 0 0 5.892l11.333 11.302h-16a4.172 4.172 0 0 0-4.167 4.166 4.173 4.173 0 0 0 4.167 4.167h16l-11.333 11.301a4.171 4.171 0 0 0 0 5.893 4.195 4.195 0 0 0 5.916 0l11.292-11.302v15.983a4.173 4.173 0 0 0 4.167 4.167 4.173 4.173 0 0 0 4.166-4.167v-15.983l11.292 11.302a4.197 4.197 0 0 0 5.917 0 4.171 4.171 0 0 0 0-5.893l-11.334-11.301h16a4.173 4.173 0 0 0 4.167-4.167 4.172 4.172 0 0 0-4.167-4.166h-16l11.334-11.302a4.17 4.17 0 0 0 0-5.892 4.197 4.197 0 0 0-5.917 0l-11.292 11.301v-15.982Z" style="fill:url(#b)"/><path d="M5267.71 279.167a4.172 4.172 0 0 0-4.166-4.167 4.173 4.173 0 0 0-4.167 4.167v15.982l-11.292-11.301a4.194 4.194 0 0 0-5.916 0 4.17 4.17 0 0 0 0 5.892l11.333 11.302h-16a4.172 4.172 0 0 0-4.167 4.166 4.173 4.173 0 0 0 4.167 4.167h16l-11.333 11.301a4.171 4.171 0 0 0 0 5.893 4.195 4.195 0 0 0 5.916 0l11.292-11.302v15.983a4.173 4.173 0 0 0 4.167 4.167 4.173 4.173 0 0 0 4.166-4.167v-15.983l11.292 11.302a4.197 4.197 0 0 0 5.917 0 4.171 4.171 0 0 0 0-5.893l-11.334-11.301h16a4.173 4.173 0 0 0 4.167-4.167 4.172 4.172 0 0 0-4.167-4.166h-16l11.334-11.302a4.17 4.17 0 0 0 0-5.892 4.197 4.197 0 0 0-5.917 0l-11.292 11.301v-15.982Z" style="fill:url(#c)"/><path d="M5342.71 204.167a4.172 4.172 0 0 0-4.166-4.167 4.173 4.173 0 0 0-4.167 4.167v15.982l-11.292-11.301a4.194 4.194 0 0 0-5.916 0 4.17 4.17 0 0 0 0 5.892l11.333 11.302h-16a4.172 4.172 0 0 0-4.167 4.166 4.173 4.173 0 0 0 4.167 4.167h16l-11.333 11.301a4.171 4.171 0 0 0 0 5.893 4.195 4.195 0 0 0 5.916 0l11.292-11.301v15.982a4.173 4.173 0 0 0 4.167 4.167 4.173 4.173 0 0 0 4.166-4.167v-15.982l11.292 11.301a4.197 4.197 0 0 0 5.917 0 4.171 4.171 0 0 0 0-5.893l-11.334-11.301h16a4.173 4.173 0 0 0 4.167-4.167 4.172 4.172 0 0 0-4.167-4.166h-16l11.334-11.302a4.17 4.17 0 0 0 0-5.892 4.197 4.197 0 0 0-5.917 0l-11.292 11.301v-15.982Z" style="fill:url(#d)"/><path d="M5484.38 166.667a4.173 4.173 0 0 0-4.167-4.167 4.172 4.172 0 0 0-4.166 4.167v15.982l-11.292-11.301a4.195 4.195 0 0 0-5.917 0 4.17 4.17 0 0 0 0 5.892l11.334 11.302h-16a4.172 4.172 0 0 0-4.167 4.166 4.173 4.173 0 0 0 4.167 4.167h16l-11.334 11.301a4.171 4.171 0 0 0 0 5.893 4.197 4.197 0 0 0 5.917 0l11.292-11.301v15.982a4.173 4.173 0 0 0 4.166 4.167 4.173 4.173 0 0 0 4.167-4.167v-15.982l11.292 11.301a4.195 4.195 0 0 0 5.916 0 4.171 4.171 0 0 0 0-5.893l-11.333-11.301h16a4.173 4.173 0 0 0 4.167-4.167 4.172 4.172 0 0 0-4.167-4.166h-16l11.333-11.302a4.17 4.17 0 0 0 0-5.892 4.195 4.195 0 0 0-5.916 0l-11.292 11.301v-15.982Z" style="fill:url(#e)"/><path d="M5463.54 266.667a4.173 4.173 0 0 0-4.167-4.167 4.173 4.173 0 0 0-4.167 4.167v15.982l-11.291-11.301a4.195 4.195 0 0 0-5.917 0 4.17 4.17 0 0 0 0 5.892l11.333 11.302h-16a4.172 4.172 0 0 0-4.166 4.166 4.172 4.172 0 0 0 4.166 4.167h16l-11.333 11.301a4.171 4.171 0 0 0 0 5.893 4.197 4.197 0 0 0 5.917 0l11.291-11.302v15.983a4.173 4.173 0 0 0 4.167 4.167 4.173 4.173 0 0 0 4.167-4.167v-15.983l11.291 11.302a4.197 4.197 0 0 0 5.917 0 4.171 4.171 0 0 0 0-5.893l-11.333-11.301h16a4.172 4.172 0 0 0 4.166-4.167 4.172 4.172 0 0 0-4.166-4.166h-16l11.333-11.302a4.17 4.17 0 0 0 0-5.892 4.197 4.197 0 0 0-5.917 0l-11.291 11.301v-15.982Z" style="fill:url(#f)"/><path d="M5596.88 216.667a4.173 4.173 0 0 0-4.167-4.167 4.172 4.172 0 0 0-4.166 4.167v15.982l-11.292-11.301a4.195 4.195 0 0 0-5.917 0 4.17 4.17 0 0 0 0 5.892l11.334 11.302h-16a4.172 4.172 0 0 0-4.167 4.166 4.173 4.173 0 0 0 4.167 4.167h16l-11.334 11.301a4.171 4.171 0 0 0 0 5.893 4.197 4.197 0 0 0 5.917 0l11.292-11.301v15.982a4.173 4.173 0 0 0 4.166 4.167 4.173 4.173 0 0 0 4.167-4.167v-15.982l11.292 11.301a4.195 4.195 0 0 0 5.916 0 4.171 4.171 0 0 0 0-5.893l-11.333-11.301h16a4.173 4.173 0 0 0 4.167-4.167 4.172 4.172 0 0 0-4.167-4.166h-16l11.333-11.302a4.17 4.17 0 0 0 0-5.892 4.195 4.195 0 0 0-5.916 0l-11.292 11.301v-15.982Z" style="fill:url(#g)"/><path d="M5159.25-66.623c14.125-98.963 99.25-175.044 202.125-175.044 67 0 126.5 32.3 163.708 82.183 16.084-5.156 33.25-7.94 51.042-7.94 92.25 0 167.042 74.789 167.042 167.045 0 92.257-74.792 167.046-167.042 167.046h-429.542v-1.076c-56.916-7.759-100.75-56.554-100.75-115.591 0-63.349 50.5-114.905 113.417-116.622Z" style="fill:#d8d8d8"/><defs><linearGradient id="a" x1="0" y1="0" x2="1" y2="0" gradientUnits="userSpaceOnUse" gradientTransform="matrix(0 81.25 -81.25 0 5205.21 141.667)"><stop offset="0" style="stop-color:#fff;stop-opacity:0"/><stop offset="1" style="stop-color:#fff;stop-opacity:1"/></linearGradient><linearGradient id="b" x1="0" y1="0" x2="1" y2="0" gradientUnits="userSpaceOnUse" gradientTransform="matrix(0 81.25 -81.25 0 5138.54 241.667)"><stop offset="0" style="stop-color:#fff;stop-opacity:0"/><stop offset="1" style="stop-color:#fff;stop-opacity:1"/></linearGradient><linearGradient id="c" x1="0" y1="0" x2="1" y2="0" gradientUnits="userSpaceOnUse" gradientTransform="matrix(0 81.25 -81.25 0 5263.54 254.167)"><stop offset="0" style="stop-color:#fff;stop-opacity:0"/><stop offset="1" style="stop-color:#fff;stop-opacity:1"/></linearGradient><linearGradient id="d" x1="0" y1="0" x2="1" y2="0" gradientUnits="userSpaceOnUse" gradientTransform="matrix(0 81.25 -81.25 0 5338.54 179.167)"><stop offset="0" style="stop-color:#fff;stop-opacity:0"/><stop offset="1" style="stop-color:#fff;stop-opacity:1"/></linearGradient><linearGradient id="e" x1="0" y1="0" x2="1" y2="0" gradientUnits="userSpaceOnUse" gradientTransform="matrix(0 81.25 -81.25 0 5480.21 141.667)"><stop offset="0" style="stop-color:#fff;stop-opacity:0"/><stop offset="1" style="stop-color:#fff;stop-opacity:1"/></linearGradient><linearGradient id="f" x1="0" y1="0" x2="1" y2="0" gradientUnits="userSpaceOnUse" gradientTransform="matrix(0 81.25 -81.25 0 5459.38 241.667)"><stop offset="0" style="stop-color:#fff;stop-opacity:0"/><stop offset="1" style="stop-color:#fff;stop-opacity:1"/></linearGradient><linearGradient id="g" x1="0" y1="0" x2="1" y2="0" gradientUnits="userSpaceOnUse" gradientTransform="matrix(0 81.25 -81.25 0 5592.71 191.667)"><stop offset="0" style="stop-color:#fff;stop-opacity:0"/><stop offset="1" style="stop-color:#fff;stop-opacity:1"/></linearGradient></defs></svg>