<svg viewBox="0 0 5667 334" xmlns="http://www.w3.org/2000/svg" xml:space="preserve" style="fill-rule:evenodd;clip-rule:evenodd;stroke-linejoin:round;stroke-miterlimit:2"><path d="M5180.08.044C5194.205-98.919 5279.33-175 5382.205-175c67 0 126.5 32.3 163.709 82.183 16.083-5.156 33.25-7.941 51.041-7.941 92.25 0 167.042 74.789 167.042 167.046 0 92.257-74.792 167.045-167.042 167.045h-429.541v-1.076c-56.917-7.759-100.75-56.554-100.75-115.59 0-63.35 50.5-114.906 113.416-116.623Z" style="fill:#558cb4;fill-opacity:.6"/><path d="M4967.58 225.044C4981.705 126.081 5066.83 50 5169.705 50c67 0 126.5 32.3 163.709 82.183 16.083-5.156 33.25-7.94 51.041-7.94 92.25 0 167.042 74.788 167.042 167.045 0 92.257-74.792 167.045-167.042 167.045h-429.541v-1.075c-56.917-7.758-100.75-56.555-100.75-115.591 0-63.35 50.5-114.906 113.416-116.623Z" style="fill:#558cb4;fill-opacity:.6"/></svg>