<svg viewBox="0 0 5667 334" xmlns="http://www.w3.org/2000/svg" xml:space="preserve" style="fill-rule:evenodd;clip-rule:evenodd;stroke-linecap:round"><path d="m5081.25 247.917-43.75 66.666" style="fill:none;fill-rule:nonzero;stroke:url(#a);stroke-width:8.33px"/><path d="m5195.83 204.167-43.75 66.666" style="fill:none;fill-rule:nonzero;stroke:url(#b);stroke-width:8.33px"/><path d="m5275 250-43.75 66.667" style="fill:none;fill-rule:nonzero;stroke:url(#c);stroke-width:8.33px"/><path d="m5391.67 204.167-43.75 66.666" style="fill:none;fill-rule:nonzero;stroke:url(#d);stroke-width:8.33px"/><path d="m5491.67 254.167-43.75 66.666" style="fill:none;fill-rule:nonzero;stroke:url(#e);stroke-width:8.33px"/><path d="m5608.33 200-43.75 66.667" style="fill:none;fill-rule:nonzero;stroke:url(#f);stroke-width:8.33px"/><path d="M5287.5 195.833 5318.75 150h43.75l-18.75 25h37.5l-89.583 77.083 33.333-56.25h-37.5Z" style="fill:url(#g);fill-rule:nonzero"/><path d="M5043.75 210.417 5000 277.083" style="fill:none;fill-rule:nonzero;stroke:url(#h);stroke-width:8.33px"/><path d="M5075 308.333 5031.25 375" style="fill:none;fill-rule:nonzero;stroke:#fff;stroke-opacity:.3;stroke-width:8.33px"/><path d="m5158.33 166.667-43.75 66.666" style="fill:none;fill-rule:nonzero;stroke:url(#i);stroke-width:8.33px"/><path d="m5237.5 212.5-43.75 66.667" style="fill:none;fill-rule:nonzero;stroke:url(#j);stroke-width:8.33px"/><path d="M5268.75 310.417 5225 377.083" style="fill:none;fill-rule:nonzero;stroke:#fff;stroke-opacity:.3;stroke-width:8.33px"/><path d="m5354.17 166.667-43.75 66.666" style="fill:none;fill-rule:nonzero;stroke:url(#k);stroke-width:8.33px"/><path d="m5454.17 216.667-43.75 66.666" style="fill:none;fill-rule:nonzero;stroke:url(#l);stroke-width:8.33px"/><path d="m5485.42 314.583-43.75 66.667" style="fill:none;fill-rule:nonzero;stroke:#fff;stroke-opacity:.3;stroke-width:8.33px"/><path d="m5570.83 162.5-43.75 66.667" style="fill:none;fill-rule:nonzero;stroke:url(#m);stroke-width:8.33px"/><path d="M5159.25-66.623c14.125-98.963 99.25-175.044 202.125-175.044 67 0 126.5 32.3 163.708 82.183 16.084-5.156 33.25-7.94 51.042-7.94 92.25 0 167.042 74.789 167.042 167.045 0 92.257-74.792 167.046-167.042 167.046h-429.542v-1.076c-56.916-7.759-100.75-56.554-100.75-115.591 0-63.349 50.5-114.905 113.417-116.622Z" style="fill:#1f4f72"/><defs><linearGradient id="a" x1="0" y1="0" x2="1" y2="0" gradientUnits="userSpaceOnUse" gradientTransform="rotate(90 2405.731 2653.649) scale(66.6667)"><stop offset="0" style="stop-color:#fff;stop-opacity:0"/><stop offset=".9" style="stop-color:#fff;stop-opacity:.3"/><stop offset="1" style="stop-color:#fff;stop-opacity:.3"/></linearGradient><linearGradient id="b" x1="0" y1="0" x2="1" y2="0" gradientUnits="userSpaceOnUse" gradientTransform="rotate(90 2484.896 2689.064) scale(66.6667)"><stop offset="0" style="stop-color:#fff;stop-opacity:0"/><stop offset=".9" style="stop-color:#fff;stop-opacity:.3"/><stop offset="1" style="stop-color:#fff;stop-opacity:.3"/></linearGradient><linearGradient id="c" x1="0" y1="0" x2="1" y2="0" gradientUnits="userSpaceOnUse" gradientTransform="matrix(0 66.6667 -66.6667 0 5253.12 250)"><stop offset="0" style="stop-color:#fff;stop-opacity:0"/><stop offset=".9" style="stop-color:#fff;stop-opacity:.3"/><stop offset="1" style="stop-color:#fff;stop-opacity:.3"/></linearGradient><linearGradient id="d" x1="0" y1="0" x2="1" y2="0" gradientUnits="userSpaceOnUse" gradientTransform="rotate(90 2582.811 2786.979) scale(66.6667)"><stop offset="0" style="stop-color:#fff;stop-opacity:0"/><stop offset=".9" style="stop-color:#fff;stop-opacity:.3"/><stop offset="1" style="stop-color:#fff;stop-opacity:.3"/></linearGradient><linearGradient id="e" x1="0" y1="0" x2="1" y2="0" gradientUnits="userSpaceOnUse" gradientTransform="rotate(90 2607.811 2861.979) scale(66.6667)"><stop offset="0" style="stop-color:#fff;stop-opacity:0"/><stop offset=".9" style="stop-color:#fff;stop-opacity:.3"/><stop offset="1" style="stop-color:#fff;stop-opacity:.3"/></linearGradient><linearGradient id="f" x1="0" y1="0" x2="1" y2="0" gradientUnits="userSpaceOnUse" gradientTransform="matrix(0 66.6667 -66.6667 0 5586.46 200)"><stop offset="0" style="stop-color:#fff;stop-opacity:0"/><stop offset=".9" style="stop-color:#fff;stop-opacity:.3"/><stop offset="1" style="stop-color:#fff;stop-opacity:.3"/></linearGradient><linearGradient id="g" x1="0" y1="0" x2="1" y2="0" gradientUnits="userSpaceOnUse" gradientTransform="matrix(0 29.1667 -29.1667 0 5333.33 150)"><stop offset="0" style="stop-color:#ffe600;stop-opacity:0"/><stop offset="1" style="stop-color:#ffe600;stop-opacity:1"/></linearGradient><linearGradient id="h" x1="0" y1="0" x2="1" y2="0" gradientUnits="userSpaceOnUse" gradientTransform="rotate(90 2405.731 2616.149) scale(66.6667)"><stop offset="0" style="stop-color:#fff;stop-opacity:0"/><stop offset=".9" style="stop-color:#fff;stop-opacity:.3"/><stop offset="1" style="stop-color:#fff;stop-opacity:.3"/></linearGradient><linearGradient id="i" x1="0" y1="0" x2="1" y2="0" gradientUnits="userSpaceOnUse" gradientTransform="rotate(90 2484.896 2651.564) scale(66.6667)"><stop offset="0" style="stop-color:#fff;stop-opacity:0"/><stop offset=".9" style="stop-color:#fff;stop-opacity:.3"/><stop offset="1" style="stop-color:#fff;stop-opacity:.3"/></linearGradient><linearGradient id="j" x1="0" y1="0" x2="1" y2="0" gradientUnits="userSpaceOnUse" gradientTransform="rotate(90 2501.56 2714.06) scale(66.6667)"><stop offset="0" style="stop-color:#fff;stop-opacity:0"/><stop offset=".9" style="stop-color:#fff;stop-opacity:.3"/><stop offset="1" style="stop-color:#fff;stop-opacity:.3"/></linearGradient><linearGradient id="k" x1="0" y1="0" x2="1" y2="0" gradientUnits="userSpaceOnUse" gradientTransform="rotate(90 2582.811 2749.479) scale(66.6667)"><stop offset="0" style="stop-color:#fff;stop-opacity:0"/><stop offset=".9" style="stop-color:#fff;stop-opacity:.3"/><stop offset="1" style="stop-color:#fff;stop-opacity:.3"/></linearGradient><linearGradient id="l" x1="0" y1="0" x2="1" y2="0" gradientUnits="userSpaceOnUse" gradientTransform="rotate(90 2607.811 2824.479) scale(66.6667)"><stop offset="0" style="stop-color:#fff;stop-opacity:0"/><stop offset=".9" style="stop-color:#fff;stop-opacity:.3"/><stop offset="1" style="stop-color:#fff;stop-opacity:.3"/></linearGradient><linearGradient id="m" x1="0" y1="0" x2="1" y2="0" gradientUnits="userSpaceOnUse" gradientTransform="rotate(90 2693.23 2855.73) scale(66.6667)"><stop offset="0" style="stop-color:#fff;stop-opacity:0"/><stop offset=".9" style="stop-color:#fff;stop-opacity:.3"/><stop offset="1" style="stop-color:#fff;stop-opacity:.3"/></linearGradient></defs></svg>