<svg viewBox="0 0 5667 334" xmlns="http://www.w3.org/2000/svg" xml:space="preserve" style="fill-rule:evenodd;clip-rule:evenodd;stroke-linecap:round"><path d="m5081.25 247.917-43.75 66.666" style="fill:none;fill-rule:nonzero;stroke:url(#a);stroke-width:8.33px"/><path d="m5195.83 204.167-43.75 66.666" style="fill:none;fill-rule:nonzero;stroke:url(#b);stroke-width:8.33px"/><path d="m5275 250-43.75 66.667" style="fill:none;fill-rule:nonzero;stroke:url(#c);stroke-width:8.33px"/><path d="m5391.67 204.167-43.75 66.666" style="fill:none;fill-rule:nonzero;stroke:url(#d);stroke-width:8.33px"/><path d="m5491.67 254.167-43.75 66.666" style="fill:none;fill-rule:nonzero;stroke:url(#e);stroke-width:8.33px"/><path d="m5608.33 200-43.75 66.667" style="fill:none;fill-rule:nonzero;stroke:url(#f);stroke-width:8.33px"/><path d="M5159.25-66.623c14.125-98.963 99.25-175.044 202.125-175.044 67 0 126.5 32.3 163.708 82.183 16.084-5.156 33.25-7.94 51.042-7.94 92.25 0 167.042 74.789 167.042 167.045 0 92.257-74.792 167.046-167.042 167.046h-429.542v-1.076c-56.916-7.759-100.75-56.554-100.75-115.591 0-63.349 50.5-114.905 113.417-116.622Z" style="fill:#1f4f72"/><defs><linearGradient id="a" x1="0" y1="0" x2="1" y2="0" gradientUnits="userSpaceOnUse" gradientTransform="rotate(90 2405.731 2653.649) scale(66.6667)"><stop offset="0" style="stop-color:#fff;stop-opacity:0"/><stop offset=".9" style="stop-color:#fff;stop-opacity:.3"/><stop offset="1" style="stop-color:#fff;stop-opacity:.3"/></linearGradient><linearGradient id="b" x1="0" y1="0" x2="1" y2="0" gradientUnits="userSpaceOnUse" gradientTransform="rotate(90 2484.896 2689.064) scale(66.6667)"><stop offset="0" style="stop-color:#fff;stop-opacity:0"/><stop offset=".9" style="stop-color:#fff;stop-opacity:.3"/><stop offset="1" style="stop-color:#fff;stop-opacity:.3"/></linearGradient><linearGradient id="c" x1="0" y1="0" x2="1" y2="0" gradientUnits="userSpaceOnUse" gradientTransform="matrix(0 66.6667 -66.6667 0 5253.12 250)"><stop offset="0" style="stop-color:#fff;stop-opacity:0"/><stop offset=".9" style="stop-color:#fff;stop-opacity:.3"/><stop offset="1" style="stop-color:#fff;stop-opacity:.3"/></linearGradient><linearGradient id="d" x1="0" y1="0" x2="1" y2="0" gradientUnits="userSpaceOnUse" gradientTransform="rotate(90 2582.811 2786.979) scale(66.6667)"><stop offset="0" style="stop-color:#fff;stop-opacity:0"/><stop offset=".9" style="stop-color:#fff;stop-opacity:.3"/><stop offset="1" style="stop-color:#fff;stop-opacity:.3"/></linearGradient><linearGradient id="e" x1="0" y1="0" x2="1" y2="0" gradientUnits="userSpaceOnUse" gradientTransform="rotate(90 2607.811 2861.979) scale(66.6667)"><stop offset="0" style="stop-color:#fff;stop-opacity:0"/><stop offset=".9" style="stop-color:#fff;stop-opacity:.3"/><stop offset="1" style="stop-color:#fff;stop-opacity:.3"/></linearGradient><linearGradient id="f" x1="0" y1="0" x2="1" y2="0" gradientUnits="userSpaceOnUse" gradientTransform="matrix(0 66.6667 -66.6667 0 5586.46 200)"><stop offset="0" style="stop-color:#fff;stop-opacity:0"/><stop offset=".9" style="stop-color:#fff;stop-opacity:.3"/><stop offset="1" style="stop-color:#fff;stop-opacity:.3"/></linearGradient></defs></svg>